HIERARCHY
ROOT Hips
{
	OFFSET -3.958830 18.904000 13.208200
	CHANNELS 6 Xposition Yposition Zposition Zrotation Yrotation Xrotation 
	JOINT LHipJoint
	{
		OFFSET 0.000000 0.000000 0.000000
		CHANNELS 3 Zrotation Yrotation Xrotation
		JOINT LeftUpLeg
		{
			OFFSET 1.800000 -1.400000 0.085000
			CHANNELS 3 Zrotation Yrotation Xrotation
			JOINT LeftLeg
			{
				OFFSET 2.215000 -6.000000 0.000000
				CHANNELS 3 Zrotation Yrotation Xrotation
				JOINT LeftFoot
				{
					OFFSET 2.500000 -6.900000 0.000000
					CHANNELS 3 Zrotation Yrotation Xrotation
					JOINT LeftToeBase
					{
						OFFSET 0.200000 -0.500000 1.950000
						CHANNELS 3 Zrotation Yrotation Xrotation
						End Site
						{
							OFFSET 0.000000 0.000000 0.000000
						}
					}
				}
			}
		}
	}
	JOINT RHipJoint
	{
		OFFSET 0.000000 0.000000 0.000000
		CHANNELS 3 Zrotation Yrotation Xrotation
		JOINT RightUpLeg
		{
			OFFSET -1.800000 -1.400000 0.085000
			CHANNELS 3 Zrotation Yrotation Xrotation
			JOINT RightLeg
			{
				OFFSET -2.215000 -6.000000 0.000000
				CHANNELS 3 Zrotation Yrotation Xrotation
				JOINT RightFoot
				{
					OFFSET -2.500000 -6.900000 0.000000
					CHANNELS 3 Zrotation Yrotation Xrotation
					JOINT RightToeBase
					{
						OFFSET -0.200000 -0.500000 1.950000
						CHANNELS 3 Zrotation Yrotation Xrotation
						End Site
						{
							OFFSET 0.000000 0.000000 0.000000
						}
					}
				}
			}
		}
	}
	JOINT LowerBack
	{
		OFFSET 0.000000 0.000000 0.000000
		CHANNELS 3 Zrotation Yrotation Xrotation
		JOINT Spine
		{
			OFFSET -0.087000 1.940000 -0.288900
			CHANNELS 3 Zrotation Yrotation Xrotation
			JOINT Spine1
			{
				OFFSET 0.000000 1.950000 0.060000
				CHANNELS 3 Zrotation Yrotation Xrotation
				JOINT Neck
				{
					OFFSET 0.000000 0.000000 0.000000
					CHANNELS 3 Zrotation Yrotation Xrotation
					JOINT Neck1
					{
						OFFSET 0.000000 1.600000 0.340000
						CHANNELS 3 Zrotation Yrotation Xrotation
						JOINT Head
						{
							OFFSET 0.000000 1.667000 -0.240000
							CHANNELS 3 Zrotation Yrotation Xrotation
							End Site
							{
								OFFSET 0.000000 0.000000 0.000000
							}
						}
					}
				}
				JOINT LeftShoulder
				{
					OFFSET 0.000000 0.000000 0.000000
					CHANNELS 3 Zrotation Yrotation Xrotation
					JOINT LeftArm
					{
						OFFSET 2.700000 1.550000 -0.730000
						CHANNELS 3 Zrotation Yrotation Xrotation
						JOINT LeftForeArm
						{
							OFFSET 5.450000 0.000000 0.000000
							CHANNELS 3 Zrotation Yrotation Xrotation
							JOINT LeftHand
							{
								OFFSET 3.450000 0.000000 0.000000
								CHANNELS 3 Zrotation Yrotation Xrotation
								JOINT LeftHandIndex1
								{
									OFFSET 0.750000 0.000000 0.000000
									CHANNELS 3 Zrotation Yrotation Xrotation
									End Site
									{
										OFFSET 0.000000 0.000000 0.000000
									}
								}
							}
						}
					}
				}
				JOINT RightShoulder
				{
					OFFSET 0.000000 0.000000 0.000000
					CHANNELS 3 Zrotation Yrotation Xrotation
					JOINT RightArm
					{
						OFFSET -2.700000 1.550000 -0.730000
						CHANNELS 3 Zrotation Yrotation Xrotation
						JOINT RightForeArm
						{
							OFFSET -5.450000 0.000000 0.000000
							CHANNELS 3 Zrotation Yrotation Xrotation
							JOINT RightHand
							{
								OFFSET -3.450000 0.000000 0.000000
								CHANNELS 3 Zrotation Yrotation Xrotation
								JOINT RightHandIndex1
								{
									OFFSET -0.750000 0.000000 0.000000
									CHANNELS 3 Zrotation Yrotation Xrotation
									End Site
									{
										OFFSET 0.000000 0.000000 0.000000
									}
								}
							}
						}
					}
				}
			}
		}
	}
}
MOTION
Frames: 4
Frame Time: 0.016667
-0.315070 16.897410 -1.157850 -5.247066 -4.443036 -0.737936 -14.438934 13.530225 3.043504 12.866183 -0.375075 -11.663108 -7.620171 5.567617 9.240616 -1.137253 4.883769 3.031103 -0.760780 -1.149680 -0.823190 18.695334 -11.609839 2.876342 -5.071410 0.359373 -8.468297 1.197732 -4.801217 9.168816 -0.235640 -3.266965 3.393443 -0.532300 1.040640 0.241780 -5.107719 -0.723639 -7.660931 26.163309 -1.189651 10.748274 -14.729823 1.297713 -4.687469 3.211719 -6.677118 -13.290221 -16.151361 7.739232 59.643511 -0.671720 -1.027280 -11.564490 -24.844443 -6.003082 5.233254 -53.344376 9.430388 -7.310135 -19.366310 -19.172966 -0.586968 -3.993021 1.950325 1.325450 0.200570 -0.017320 0.132310 16.434823 14.057123 8.610998 70.780467 5.522164 -6.023060 11.625319 16.607920 1.015232 2.007205 -0.207727 -0.944860 0.905570 0.980300 -0.041090 
-0.323020 16.911260 -1.154910 -5.061035 -5.323015 -1.131538 -14.441308 13.575137 3.053652 12.855023 -0.310799 -10.990057 -7.679273 5.604439 9.178456 -1.131427 4.909289 3.016858 -0.728250 -1.110670 -0.796870 18.685305 -11.606371 2.873317 -5.166643 0.293137 -8.219272 0.888253 -4.756290 9.130663 -0.265831 -3.244698 3.395234 -0.517510 1.011730 0.237350 -5.069404 -0.811698 -7.667213 25.820872 -1.413629 11.179514 -14.661203 1.192768 -4.724743 3.081171 -6.894885 -13.709145 -17.063705 8.680568 61.202180 0.235170 -0.781500 -12.646410 -25.594144 -6.744242 5.556521 -52.627382 9.910299 -7.319500 -19.425095 -18.822168 -0.658253 -3.951147 1.943423 1.358570 0.169750 0.015650 0.134610 17.545488 14.914804 8.825498 70.195142 5.363689 -6.201183 10.967864 16.602712 0.968220 2.001647 -0.185880 -0.938130 0.914440 0.963640 -0.047840 
-0.329960 16.916890 -1.147370 -4.893548 -6.513423 -1.337293 -14.444137 13.613126 3.051398 12.791952 -0.271822 -10.489935 -7.795478 5.692804 9.360807 -1.125040 4.965646 2.987491 -0.721970 -1.101280 -0.796650 18.682509 -11.596586 2.848807 -5.304971 0.279063 -8.257877 0.602814 -4.721289 9.334841 -0.271773 -3.229541 3.384312 -0.511990 1.006530 0.244030 -5.038330 -0.908004 -7.629357 25.533042 -1.654102 11.321369 -14.529906 0.943234 -4.627474 2.926826 -7.281467 -13.885235 -18.471783 9.788368 61.388533 0.982210 -0.489100 -12.915810 -25.988114 -7.179040 5.658968 -52.181443 9.752023 -6.908696 -19.121916 -17.602123 -0.810721 -3.950468 1.948593 1.366250 0.160730 0.025440 0.129150 18.371359 15.372040 8.927986 69.653809 5.203065 -6.462104 10.719246 16.924092 0.932077 1.997386 -0.177966 -0.932320 0.912090 0.970830 -0.046990 
-0.342780 16.918430 -1.139620 -4.678766 -7.966088 -1.450525 -14.443436 13.623772 3.040606 12.673298 -0.241823 -10.007102 -7.877141 5.740725 9.391117 -1.121484 5.013386 2.978428 -0.714730 -1.082330 -0.809680 18.690034 -11.591078 2.811889 -5.555535 0.294071 -8.516336 0.457829 -4.695549 9.605554 -0.262422 -3.229592 3.382663 -0.492240 1.030100 0.241220 -5.028989 -0.957434 -7.560967 25.170004 -1.793838 10.931019 -14.178567 0.702822 -3.915242 2.800141 -7.759333 -14.079856 -20.027529 10.991218 60.903601 1.352150 -0.076820 -11.971930 -26.297109 -8.060462 5.904011 -52.272286 9.192701 -6.491339 -17.734646 -16.462156 -1.060780 -3.966301 1.942138 1.351080 0.176590 0.015290 0.143190 19.104917 16.306814 9.066354 68.716546 5.459113 -6.137494 10.764300 16.134811 0.964510 1.993635 -0.191553 -0.936810 0.925950 0.969910 -0.035660 
